<mxfile host="Electron" modified="2024-03-12T02:42:59.391Z" agent="Mozilla/5.0 (Macintosh; Intel Mac OS X 10_15_7) AppleWebKit/537.36 (KHTML, like Gecko) draw.io/23.0.2 Chrome/120.0.6099.109 Electron/28.1.0 Safari/537.36" etag="6wXsHOFYJ0CBuxnOCWoO" version="23.0.2" type="device">
  <diagram name="Page-1" id="hCyTgzgoAkHKbUksc0Ny">
    <mxGraphModel dx="1613" dy="1036" grid="1" gridSize="10" guides="1" tooltips="1" connect="1" arrows="1" fold="1" page="1" pageScale="1" pageWidth="850" pageHeight="1100" math="0" shadow="0">
      <root>
        <mxCell id="0" />
        <mxCell id="1" parent="0" />
        <mxCell id="KhTVDVbrBbQAH1ILB0Be-1" value="&lt;font size=&quot;1&quot; style=&quot;&quot;&gt;&lt;b style=&quot;font-size: 36px;&quot;&gt;Development View&lt;/b&gt;&lt;/font&gt;" style="text;html=1;strokeColor=none;fillColor=none;align=center;verticalAlign=middle;whiteSpace=wrap;rounded=0;" vertex="1" parent="1">
          <mxGeometry x="250" y="20" width="350" height="30" as="geometry" />
        </mxCell>
        <mxCell id="KhTVDVbrBbQAH1ILB0Be-2" value="" style="shape=folder;fontStyle=1;spacingTop=10;tabWidth=40;tabHeight=14;tabPosition=left;html=1;whiteSpace=wrap;" vertex="1" parent="1">
          <mxGeometry x="220" y="220" width="286" height="241" as="geometry" />
        </mxCell>
        <mxCell id="KhTVDVbrBbQAH1ILB0Be-3" value="&lt;b&gt;Testing&lt;/b&gt;" style="html=1;dropTarget=0;whiteSpace=wrap;" vertex="1" parent="1">
          <mxGeometry x="563" y="256" width="120" height="60" as="geometry" />
        </mxCell>
        <mxCell id="KhTVDVbrBbQAH1ILB0Be-4" value="" style="shape=module;jettyWidth=8;jettyHeight=4;" vertex="1" parent="KhTVDVbrBbQAH1ILB0Be-3">
          <mxGeometry x="1" width="20" height="20" relative="1" as="geometry">
            <mxPoint x="-27" y="7" as="offset" />
          </mxGeometry>
        </mxCell>
        <mxCell id="KhTVDVbrBbQAH1ILB0Be-5" value="&lt;b&gt;Minesweeper Game Logic&lt;/b&gt;" style="html=1;dropTarget=0;whiteSpace=wrap;" vertex="1" parent="1">
          <mxGeometry x="232" y="266" width="140" height="80" as="geometry" />
        </mxCell>
        <mxCell id="KhTVDVbrBbQAH1ILB0Be-6" value="" style="shape=module;jettyWidth=8;jettyHeight=4;" vertex="1" parent="KhTVDVbrBbQAH1ILB0Be-5">
          <mxGeometry x="1" width="20" height="20" relative="1" as="geometry">
            <mxPoint x="-27" y="7" as="offset" />
          </mxGeometry>
        </mxCell>
        <mxCell id="KhTVDVbrBbQAH1ILB0Be-7" value="&lt;b&gt;Renderer&lt;/b&gt;" style="html=1;dropTarget=0;whiteSpace=wrap;" vertex="1" parent="1">
          <mxGeometry x="372" y="387" width="120" height="60" as="geometry" />
        </mxCell>
        <mxCell id="KhTVDVbrBbQAH1ILB0Be-8" value="" style="shape=module;jettyWidth=8;jettyHeight=4;" vertex="1" parent="KhTVDVbrBbQAH1ILB0Be-7">
          <mxGeometry x="1" width="20" height="20" relative="1" as="geometry">
            <mxPoint x="-27" y="7" as="offset" />
          </mxGeometry>
        </mxCell>
        <mxCell id="KhTVDVbrBbQAH1ILB0Be-9" value="Minesweeper Game Module" style="text;align=center;fontStyle=1;verticalAlign=middle;spacingLeft=3;spacingRight=3;strokeColor=none;rotatable=0;points=[[0,0.5],[1,0.5]];portConstraint=eastwest;html=1;" vertex="1" parent="1">
          <mxGeometry x="316" y="231" width="80" height="26" as="geometry" />
        </mxCell>
        <mxCell id="KhTVDVbrBbQAH1ILB0Be-10" value="&lt;b&gt;Pygame&lt;/b&gt;" style="html=1;dropTarget=0;whiteSpace=wrap;" vertex="1" parent="1">
          <mxGeometry x="563" y="359" width="120" height="60" as="geometry" />
        </mxCell>
        <mxCell id="KhTVDVbrBbQAH1ILB0Be-11" value="" style="shape=module;jettyWidth=8;jettyHeight=4;" vertex="1" parent="KhTVDVbrBbQAH1ILB0Be-10">
          <mxGeometry x="1" width="20" height="20" relative="1" as="geometry">
            <mxPoint x="-27" y="7" as="offset" />
          </mxGeometry>
        </mxCell>
        <mxCell id="KhTVDVbrBbQAH1ILB0Be-12" value="" style="endArrow=classic;html=1;rounded=0;exitX=0.5;exitY=1;exitDx=0;exitDy=0;entryX=0;entryY=0.5;entryDx=0;entryDy=0;" edge="1" parent="1" source="KhTVDVbrBbQAH1ILB0Be-5" target="KhTVDVbrBbQAH1ILB0Be-7">
          <mxGeometry width="50" height="50" relative="1" as="geometry">
            <mxPoint x="295" y="425" as="sourcePoint" />
            <mxPoint x="345" y="375" as="targetPoint" />
            <Array as="points">
              <mxPoint x="302" y="417" />
            </Array>
          </mxGeometry>
        </mxCell>
        <mxCell id="KhTVDVbrBbQAH1ILB0Be-13" value="" style="endArrow=classic;html=1;rounded=0;dashed=1;dashPattern=1 1;exitX=-0.011;exitY=0.561;exitDx=0;exitDy=0;exitPerimeter=0;" edge="1" parent="1" source="KhTVDVbrBbQAH1ILB0Be-3">
          <mxGeometry width="50" height="50" relative="1" as="geometry">
            <mxPoint x="373" y="290" as="sourcePoint" />
            <mxPoint x="373" y="289" as="targetPoint" />
          </mxGeometry>
        </mxCell>
        <mxCell id="KhTVDVbrBbQAH1ILB0Be-14" value="" style="endArrow=classic;html=1;rounded=0;exitX=1.002;exitY=0.693;exitDx=0;exitDy=0;exitPerimeter=0;entryX=-0.004;entryY=0.312;entryDx=0;entryDy=0;entryPerimeter=0;dashed=1;dashPattern=1 1;" edge="1" parent="1" source="KhTVDVbrBbQAH1ILB0Be-5" target="KhTVDVbrBbQAH1ILB0Be-10">
          <mxGeometry width="50" height="50" relative="1" as="geometry">
            <mxPoint x="483" y="379" as="sourcePoint" />
            <mxPoint x="533" y="329" as="targetPoint" />
          </mxGeometry>
        </mxCell>
        <mxCell id="KhTVDVbrBbQAH1ILB0Be-15" value="" style="endArrow=classic;html=1;rounded=0;exitX=1;exitY=0.25;exitDx=0;exitDy=0;entryX=0;entryY=0.5;entryDx=0;entryDy=0;dashed=1;dashPattern=1 1;" edge="1" parent="1" source="KhTVDVbrBbQAH1ILB0Be-7" target="KhTVDVbrBbQAH1ILB0Be-10">
          <mxGeometry width="50" height="50" relative="1" as="geometry">
            <mxPoint x="533" y="489" as="sourcePoint" />
            <mxPoint x="583" y="439" as="targetPoint" />
          </mxGeometry>
        </mxCell>
        <mxCell id="KhTVDVbrBbQAH1ILB0Be-16" value="&lt;font style=&quot;font-size: 16px;&quot;&gt;OOP&lt;br&gt;Minesweeper Solver&lt;br&gt;4+1&lt;br&gt;Mia Weber &amp;amp; Brandon Kamplain&lt;/font&gt;" style="text;html=1;strokeColor=none;fillColor=none;align=center;verticalAlign=middle;whiteSpace=wrap;rounded=0;" vertex="1" parent="1">
          <mxGeometry x="252" y="70" width="347" height="95" as="geometry" />
        </mxCell>
      </root>
    </mxGraphModel>
  </diagram>
</mxfile>
